<svg width="61" height="22" viewBox="0 0 61 22" fill="none" xmlns="http://www.w3.org/2000/svg">
<path d="M0.5 3C0.5 1.61929 1.61929 0.5 3 0.5H58C59.3807 0.5 60.5 1.61929 60.5 3V19C60.5 20.3807 59.3807 21.5 58 21.5H3C1.61929 21.5 0.5 20.3807 0.5 19V3Z" fill="white" stroke="#758696"/>
<path d="M24.4717 16.1865C24.4717 15.9264 24.5519 15.7078 24.7124 15.5308C24.8784 15.3481 25.1164 15.2568 25.4263 15.2568C25.7362 15.2568 25.9714 15.3481 26.1318 15.5308C26.2979 15.7078 26.3809 15.9264 26.3809 16.1865C26.3809 16.4411 26.2979 16.6569 26.1318 16.834C25.9714 17.0111 25.7362 17.0996 25.4263 17.0996C25.1164 17.0996 24.8784 17.0111 24.7124 16.834C24.5519 16.6569 24.4717 16.4411 24.4717 16.1865ZM28.9541 16.1865C28.9541 15.9264 29.0343 15.7078 29.1948 15.5308C29.3608 15.3481 29.5988 15.2568 29.9087 15.2568C30.2186 15.2568 30.4538 15.3481 30.6143 15.5308C30.7803 15.7078 30.8633 15.9264 30.8633 16.1865C30.8633 16.4411 30.7803 16.6569 30.6143 16.834C30.4538 17.0111 30.2186 17.0996 29.9087 17.0996C29.5988 17.0996 29.3608 17.0111 29.1948 16.834C29.0343 16.6569 28.9541 16.4411 28.9541 16.1865ZM33.4365 16.1865C33.4365 15.9264 33.5168 15.7078 33.6772 15.5308C33.8433 15.3481 34.0812 15.2568 34.3911 15.2568C34.701 15.2568 34.9362 15.3481 35.0967 15.5308C35.2627 15.7078 35.3457 15.9264 35.3457 16.1865C35.3457 16.4411 35.2627 16.6569 35.0967 16.834C34.9362 17.0111 34.701 17.0996 34.3911 17.0996C34.0812 17.0996 33.8433 17.0111 33.6772 16.834C33.5168 16.6569 33.4365 16.4411 33.4365 16.1865Z" fill="#999999"/>
</svg>
