<svg width="29" height="25" viewBox="0 0 29 25" fill="none" xmlns="http://www.w3.org/2000/svg">
<g clip-path="url(#clip0_2_17)">
<path d="M27 5.18195C26.0791 5.58889 25.0916 5.86528 24.0541 5.98889C25.1125 5.35417 25.9263 4.34861 26.3083 3.15278C25.3194 3.74028 24.2208 4.16667 23.0527 4.39583C22.1166 3.4 20.7819 2.77778 19.3083 2.77778C16.4763 2.77778 14.1791 5.07222 14.1791 7.90556C14.1791 8.30695 14.2236 8.69861 14.3125 9.075C10.0486 8.85972 6.2694 6.81806 3.74023 3.71667C3.29856 4.47361 3.04579 5.35556 3.04579 6.29306C3.04579 8.07361 3.95134 9.64306 5.32773 10.5625C4.48745 10.5361 3.69579 10.3056 3.00412 9.92222C3.00412 9.94306 3.00412 9.96389 3.00412 9.98611C3.00412 12.4708 4.77218 14.5458 7.11801 15.0153C6.68745 15.1319 6.23468 15.1944 5.76662 15.1944C5.43745 15.1944 5.11523 15.1653 4.80273 15.1042C5.45412 17.1431 7.34995 18.625 9.59301 18.6667C7.83884 20.0417 5.62773 20.8611 3.22495 20.8611C2.80968 20.8611 2.40273 20.8361 2.00134 20.7875C4.27079 22.2444 6.96662 23.0917 9.86384 23.0917C19.2972 23.0917 24.4569 15.2764 24.4569 8.5C24.4569 8.27639 24.4513 8.05417 24.4402 7.83472C25.4416 7.11528 26.3125 6.21111 27 5.18195Z" fill="black"/>
</g>
<defs>
<clipPath id="clip0_2_17">
<rect width="25" height="25" fill="white" transform="translate(2)"/>
</clipPath>
</defs>
</svg>
